<svg xmlns="http://www.w3.org/2000/svg" width="110" height="45.614" viewBox="0 0 110 45.614"><g transform="translate(-1117 -33.387)"><path d="M31.83,40H9.362A9.362,9.362,0,0,1,0,30.638V15.847c0-5.17,3.557-7.677,6.553-9.175L24.9.68c10.86-3,16.289,4.415,16.289,12.17V30.638A9.362,9.362,0,0,1,31.83,40Z" transform="translate(1185.808 39.001)" fill="#fcbf17"/><path d="M54.749,1.849c.121-.592.713-1.536-.508-1.741-1.064-.181-1.088.7-1.233,1.427C51.315,10.192,46.538,17,40.118,22.792a9.62,9.62,0,0,1-.943.58c.665-4.716,1.27-9.1,1.886-13.482.085-.568.411-1.27-.5-1.439-.846-.169-1.149.351-1.258,1.137-.532,3.954-1.258,7.884-1.572,11.85-.193,2.43-.665,4.389-3.144,5.357-.06.024-.06.206-.1.351,1.04.8,1.79-.484,2.842-.4,0,1.076-.073,2.152.024,3.2a13.467,13.467,0,0,0,.6,3.108c.859,2.539,3.216,3.12,5.163,1.306a8.891,8.891,0,0,0,2.6-5.877c.363-3.579-.592-4.74-4.317-5.042.7-.653,1.2-1.088,1.681-1.548C48.836,16.274,53.116,9.818,54.749,1.849ZM43.661,25.573a4.165,4.165,0,0,1,.363,2.14,12.936,12.936,0,0,1-1.112,4.595c-.4.846-.846.8-1.524.351-2.3-1.5-2.479-6.01-.278-7.714A1.473,1.473,0,0,1,43.661,25.573Z" transform="translate(1117.317 33.413)" fill="#f2f2f2"/><path d="M19.274,22.5a17.1,17.1,0,0,1,3.337,2.962c2.442,3.12,2.019,6.457-1.137,8.887-4.631,3.567-15.09,3.567-19.709.012a4.533,4.533,0,0,1,.774-7.654,15.3,15.3,0,0,1,6.143-1.572,26.136,26.136,0,0,1,8.718.677c.8.193,1.717.363,1.463,1.463-.29,1.294-1.318.592-1.959.447-4.063-.907-8.138-1.487-12.249-.326-1.608.447-3.591.871-3.652,2.842-.048,1.8,1.8,2.539,3.289,3.071a22.708,22.708,0,0,0,14.522.4C20.677,33.145,22.6,32.3,22.95,30.1c.339-2.164-1.161-3.555-2.684-4.8-.411-.339-.859-.617-1.306-.919-.6-.387-1.294-.629-1.112-1.644.181-.992.967-.967,1.62-1.209.556-.206,1.161-.314,1.717-.532,1.451-.556,2.805-1.125,2.563-3.156a7.111,7.111,0,0,1,.568-2.3c.169-.689.411-1.306,1.258-1.294,1.04.024,1.028.931,1.137,1.6a5.116,5.116,0,0,1-3,5.175A18.684,18.684,0,0,1,19.274,22.5Z" transform="translate(1117 33.543)" fill="#f2f2f2"/><path d="M69.981,36.967a17.63,17.63,0,0,1-9.02-2.14,4.5,4.5,0,0,1-2.418-4.462,4.162,4.162,0,0,1,2.769-3.821c5.006-2.1,10.133-1.886,15.272-.592a1.037,1.037,0,0,1,.883,1.33c-.254,1-1.052.629-1.632.5-3.531-.786-7.049-1.415-10.689-.846a10.69,10.69,0,0,0-4.51,1.475c-1.524,1.04-1.6,2.189-.278,3.434a4.938,4.938,0,0,0,.472.375c4.1,3.071,14.824,3.228,18.972.29,2.116-1.5,2.406-3.555.665-5.659-2.116-2.576-5.066-3.809-8.126-4.837-.508-.169-1.016-.314-1.536-.447-.762-.206-1.475-.5-1.173-1.475.3-.955,1.016-.58,1.644-.375,3.108,1.016,6.155,2.152,8.645,4.4,4.22,3.809,3.64,8.488-1.4,11.148A18.718,18.718,0,0,1,69.981,36.967Z" transform="translate(1117.537 33.591)" fill="#f2f2f2"/><path d="M50.784,24.182c.157-1.173.278-2.164.447-3.144a.929.929,0,0,1,.931-.883c.7.036.508.641.52,1.076a12.191,12.191,0,0,1-.048,2c-.193,1.427.085,2.479,1.7,2.793.423.085,1.04.254.786.883-.193.472-.738.242-1.064.085-1.366-.641-1.475.1-1.536,1.2-.145,2.37,0,4.788-.641,7.134-.677-.278-.617-.859-.7-1.378a20.073,20.073,0,0,1-.339-5.369c.218-1.91-.411-2.914-2.2-3.76-3.1-1.487-3.349-4.014-.544-6.034a21.906,21.906,0,0,1,17.63-3.712c2.382.472,2.733,1.644,1.475,3.785a2.347,2.347,0,0,1-.326.5c-.617.653-1.112,2.152-1.9,1.693-1.064-.629.435-1.366.689-2.092.411-1.173.218-1.947-.955-2.394a3.967,3.967,0,0,0-1.149-.314,22.673,22.673,0,0,0-12.781,2.37C47.713,20.228,47.7,22.03,50.784,24.182Z" transform="translate(1117.424 33.546)" fill="#f2f2f2"/><path d="M34.395,28.065a2.944,2.944,0,0,1-1.028,2.285c-2.551,2.346-5.792,3.422-8.9,4.728-.532.218-1.209.169-1.391-.363-.242-.725.592-.75,1.016-.931A36.017,36.017,0,0,0,30.139,30.8C33,28.826,32.9,27.206,29.9,25.525c-.6-.339-2.031-.351-1.6-1.27.52-1.088,1.657-.242,2.43.157C32.4,25.247,34.068,26.142,34.395,28.065Z" transform="translate(1117.211 33.63)" fill="#f2f2f2"/><path d="M102.577,44.136c-.3.8-.979,1.052-2.938,1.04-.81.036-1.838.109-2.358-1.016A1.381,1.381,0,0,1,97.74,42.4c.689-.592,3.64-.617,4.341-.024A1.484,1.484,0,0,1,102.577,44.136Z" transform="translate(1117.891 33.797)" fill="#f2f2f2"/><path d="M87.248,43.677a1.494,1.494,0,0,1-1.56,1.475H80.476c-1.4-.1-3.543.677-3.47-1.657.073-2.128,2.116-1.366,3.47-1.463h5.211A1.465,1.465,0,0,1,87.248,43.677Z" transform="translate(1117.707 33.798)" fill="#f2f2f2"/><path d="M106.993,43.676a1.59,1.59,0,0,1-1.947,1.487,1.683,1.683,0,0,1-1.62-1.6,1.723,1.723,0,0,1,2.007-1.56C106.436,42.092,107.077,42.661,106.993,43.676Z" transform="translate(1117.949 33.798)" fill="#f2f2f2"/><path d="M47.338,44.716c-.992.738-2.1.423-3.192.4H32.151c-.266.024-.532.06-.786.073-1.233.06-2.418-.169-2.346-1.693.06-1.391,1.2-1.56,2.346-1.5.266.012.532.048.786.073H44.146a5.557,5.557,0,0,1,3.192.4C48.511,43.193,48.511,43.955,47.338,44.716Z" transform="translate(1117.266 33.798)" fill="#f2f2f2"/><path d="M63.5,43.677a1.414,1.414,0,0,1-1.548,1.439H51.969c-.266.024-.532.048-.786.06-1.233.06-2.406-.169-2.346-1.693.06-1.378,1.2-1.56,2.346-1.5.266.012.532.036.786.06h9.988A1.431,1.431,0,0,1,63.5,43.677Z" transform="translate(1117.448 33.798)" fill="#f2f2f2"/><path d="M76.168,43.676A1.467,1.467,0,0,1,74.62,45.14H67.014c-.266.012-.532.048-.786.048-1.161.012-2.068-.459-1.947-1.693.169-1.644,1.5-1.572,2.733-1.451H74.62A1.447,1.447,0,0,1,76.168,43.676Z" transform="translate(1117.59 33.798)" fill="#f2f2f2"/><path d="M96.352,43.677a1.493,1.493,0,0,1-1.378,1.451,7.483,7.483,0,0,1-1.378.024H90.4a7.464,7.464,0,0,1-1.378-.024,1.521,1.521,0,0,1-1.378-1.657,1.5,1.5,0,0,1,1.378-1.451A8.723,8.723,0,0,1,90.4,42h3.192a7.464,7.464,0,0,1,1.378.024A1.512,1.512,0,0,1,96.352,43.677Z" transform="translate(1117.804 33.798)" fill="#f2f2f2"/><path d="M27.955,43.677c-.218,1.632-1.487,1.6-2.745,1.439H2.8c-.266.024-.532.06-.786.06C.858,45.2-.061,44.729.072,43.483c.169-1.657,1.487-1.584,2.745-1.439H25.21A7.835,7.835,0,0,1,26.4,42C27.387,42.093,28.088,42.661,27.955,43.677Z" transform="translate(1117 33.798)" fill="#f2f2f2"/><path d="M74.724,31.088c-.592-.1-.738-.5-.653-1a1.226,1.226,0,0,1,1.137-1.161.719.719,0,0,1,.81.871A1.411,1.411,0,0,1,74.724,31.088Z" transform="translate(1117.679 33.678)" fill="#f2f2f2"/><path d="M108.66,19.685c-.919-.375-1.233.411-1.524,1.137a21.749,21.749,0,0,1-1.173,2.527c-2.709,4.8-6.251,8.6-11.9,9.867-.52-.3-1.306.339-1.669-.484,1.2-2.37,1.983-4.825,1.125-7.473-.58-1.765-2.31-1.777-4.027-1.983.8-.738,1.4-1.258,1.971-1.826,5.538-5.5,9.661-11.826,11.294-19.564.121-.592.665-1.56-.4-1.85-1.185-.326-1.2.7-1.342,1.475C99.4,9.734,94.96,16.3,88.963,21.946c-.447.423-.822,1.064-1.62,1.052.339-4.4,1.1-8.718,1.753-13.059.085-.58.544-1.415-.52-1.6-1.028-.169-1.161.568-1.27,1.366-.532,3.893-1.318,7.763-1.536,11.656-.145,2.515-.774,4.329-3.144,5.332-.073.024-.073.23-.109.363,1,.653,1.79-.4,2.745-.5a20.273,20.273,0,0,0,.762,6.457c.725,2.043,2.382,2.793,4.256,1.826a5.49,5.49,0,0,1,2.455-.568,13.162,13.162,0,0,0,4.655-.992c5.526-2.249,8.887-6.578,11.257-11.813C108.877,20.967,109.857,20.169,108.66,19.685ZM91.26,31.438c-.7,1.777-1.306,1.886-2.576.484a5.392,5.392,0,0,1,.29-6.9c1.112-1.052,2.128-.81,2.769.629a5.584,5.584,0,0,1,.3,2.3A10.834,10.834,0,0,1,91.26,31.438Z" transform="translate(1117.757 33.412)" fill="#f2f2f2"/></g></svg>